<mxfile modified="2024-05-07T13:59:51.783Z" host="app.diagrams.net" agent="Mozilla/5.0 (Macintosh; Intel Mac OS X 10_15_7) AppleWebKit/537.36 (KHTML, like Gecko) Chrome/124.0.0.0 Safari/537.36" etag="ortV8UWD3jXclpJBhihm" version="24.0.5" type="github">
  <diagram id="Ht1M8jgEwFfnCIfOTk4-" name="Page-1">
    <mxGraphModel dx="1877" dy="1144" grid="1" gridSize="10" guides="1" tooltips="1" connect="1" arrows="1" fold="1" page="1" pageScale="1" pageWidth="1169" pageHeight="827" math="0" shadow="0">
      <root>
        <mxCell id="0" />
        <mxCell id="1" parent="0" />
        <mxCell id="-QjtrjUzRDEMRZ5MF8oH-14" value="Amazon DodocumentDB o MongoDB" style="whiteSpace=wrap;html=1;fillColor=none;fontSize=14;fontColor=#000000;dashed=0;fontStyle=0;align=center;verticalAlign=top;strokeColor=#D86613;gradientColor=none;spacingLeft=0;labelPosition=center;verticalLabelPosition=bottom;container=1;pointerEvents=0;collapsible=0;recursiveResize=0;" parent="1" vertex="1">
          <mxGeometry x="759" y="320" width="232" height="160" as="geometry" />
        </mxCell>
        <mxCell id="-QjtrjUzRDEMRZ5MF8oH-9" value="1" style="rounded=1;whiteSpace=wrap;html=1;fillColor=#007CBD;strokeColor=none;fontColor=#FFFFFF;fontStyle=1;fontSize=22;" parent="1" vertex="1">
          <mxGeometry x="108" y="270" width="40" height="38" as="geometry" />
        </mxCell>
        <mxCell id="-QjtrjUzRDEMRZ5MF8oH-27" value="2" style="rounded=1;whiteSpace=wrap;html=1;fillColor=#007CBD;strokeColor=none;fontColor=#FFFFFF;fontStyle=1;fontSize=22;" parent="1" vertex="1">
          <mxGeometry x="368" y="223" width="40" height="38" as="geometry" />
        </mxCell>
        <mxCell id="-QjtrjUzRDEMRZ5MF8oH-28" value="3" style="rounded=1;whiteSpace=wrap;html=1;fillColor=#007CBD;strokeColor=none;fontColor=#FFFFFF;fontStyle=1;fontSize=22;" parent="1" vertex="1">
          <mxGeometry x="710" y="321" width="40" height="38" as="geometry" />
        </mxCell>
        <mxCell id="-QjtrjUzRDEMRZ5MF8oH-47" value="Traking User" style="text;html=1;resizable=0;points=[];autosize=1;align=left;verticalAlign=top;spacingTop=-4;fontSize=30;fontStyle=1" parent="1" vertex="1">
          <mxGeometry x="56.5" y="64.5" width="190" height="40" as="geometry" />
        </mxCell>
        <mxCell id="-QjtrjUzRDEMRZ5MF8oH-48" value="Playground - Dentsu" style="text;html=1;resizable=0;points=[];autosize=1;align=left;verticalAlign=top;spacingTop=-4;fontSize=16;" parent="1" vertex="1">
          <mxGeometry x="56.5" y="114.5" width="170" height="30" as="geometry" />
        </mxCell>
        <mxCell id="-QjtrjUzRDEMRZ5MF8oH-49" value="Label" style="text;html=1;resizable=0;points=[];autosize=1;align=left;verticalAlign=top;spacingTop=-4;fontSize=16;fontStyle=1" parent="1" vertex="1">
          <mxGeometry x="84.5" y="164.5" width="50" height="20" as="geometry" />
        </mxCell>
        <mxCell id="SCVMTBWpLvtzJIhz15lM-1" value="" style="line;strokeWidth=2;html=1;fontSize=14;" parent="1" vertex="1">
          <mxGeometry x="52.5" y="139.5" width="1060" height="10" as="geometry" />
        </mxCell>
        <mxCell id="SCVMTBWpLvtzJIhz15lM-2" value="&lt;span&gt;Label&lt;/span&gt;" style="text;html=1;resizable=0;points=[];autosize=1;align=left;verticalAlign=top;spacingTop=-4;fontSize=14;fontStyle=1" parent="1" vertex="1">
          <mxGeometry x="327" y="275" width="50" height="20" as="geometry" />
        </mxCell>
        <mxCell id="SCVMTBWpLvtzJIhz15lM-3" value="" style="edgeStyle=orthogonalEdgeStyle;html=1;endArrow=open;elbow=vertical;startArrow=none;endFill=0;strokeColor=#545B64;rounded=0;fontSize=14;" parent="1" edge="1">
          <mxGeometry width="100" relative="1" as="geometry">
            <mxPoint x="239" y="453" as="sourcePoint" />
            <mxPoint x="289" y="453" as="targetPoint" />
          </mxGeometry>
        </mxCell>
        <mxCell id="SCVMTBWpLvtzJIhz15lM-5" value="" style="shape=curlyBracket;whiteSpace=wrap;html=1;rounded=1;fontSize=14;" parent="1" vertex="1">
          <mxGeometry x="300" y="307" width="20" height="290" as="geometry" />
        </mxCell>
        <mxCell id="SCVMTBWpLvtzJIhz15lM-17" value="&lt;span&gt;CRON&lt;/span&gt;" style="edgeStyle=orthogonalEdgeStyle;html=1;endArrow=open;elbow=vertical;startArrow=none;endFill=0;strokeColor=#545B64;rounded=0;fontSize=14;strokeWidth=2;" parent="1" edge="1">
          <mxGeometry x="-0.037" y="20" width="100" relative="1" as="geometry">
            <mxPoint x="470" y="405" as="sourcePoint" />
            <mxPoint x="740" y="405" as="targetPoint" />
            <mxPoint as="offset" />
          </mxGeometry>
        </mxCell>
        <mxCell id="7OVz4w7n9kzEPWy-4BBC-3" value="" style="rounded=0;whiteSpace=wrap;html=1;fillColor=#EAEDED;fontSize=22;fontColor=#FFFFFF;strokeColor=none;labelBackgroundColor=none;" parent="1" vertex="1">
          <mxGeometry x="1151" y="51" width="539" height="709" as="geometry" />
        </mxCell>
        <mxCell id="7OVz4w7n9kzEPWy-4BBC-4" value="1" style="rounded=1;whiteSpace=wrap;html=1;fillColor=#007CBD;strokeColor=none;fontColor=#FFFFFF;fontStyle=1;fontSize=22;labelBackgroundColor=none;" parent="1" vertex="1">
          <mxGeometry x="1169" y="63" width="40" height="38" as="geometry" />
        </mxCell>
        <mxCell id="7OVz4w7n9kzEPWy-4BBC-5" value="2" style="rounded=1;whiteSpace=wrap;html=1;fillColor=#007CBD;strokeColor=none;fontColor=#FFFFFF;fontStyle=1;fontSize=22;labelBackgroundColor=none;" parent="1" vertex="1">
          <mxGeometry x="1167.5" y="185" width="40" height="38" as="geometry" />
        </mxCell>
        <mxCell id="7OVz4w7n9kzEPWy-4BBC-6" value="3" style="rounded=1;whiteSpace=wrap;html=1;fillColor=#007CBD;strokeColor=none;fontColor=#FFFFFF;fontStyle=1;fontSize=22;labelBackgroundColor=none;" parent="1" vertex="1">
          <mxGeometry x="1167.5" y="305" width="40" height="38" as="geometry" />
        </mxCell>
        <mxCell id="7OVz4w7n9kzEPWy-4BBC-7" value="4" style="rounded=1;whiteSpace=wrap;html=1;fillColor=#007CBD;strokeColor=none;fontColor=#FFFFFF;fontStyle=1;fontSize=22;labelBackgroundColor=none;" parent="1" vertex="1">
          <mxGeometry x="1167.5" y="419" width="40" height="38" as="geometry" />
        </mxCell>
        <mxCell id="7OVz4w7n9kzEPWy-4BBC-8" value="5" style="rounded=1;whiteSpace=wrap;html=1;fillColor=#007CBD;strokeColor=none;fontColor=#FFFFFF;fontStyle=1;fontSize=22;labelBackgroundColor=none;" parent="1" vertex="1">
          <mxGeometry x="1169" y="536" width="40" height="38" as="geometry" />
        </mxCell>
        <mxCell id="7OVz4w7n9kzEPWy-4BBC-9" value="6" style="rounded=1;whiteSpace=wrap;html=1;fillColor=#007CBD;strokeColor=none;fontColor=#FFFFFF;fontStyle=1;fontSize=22;labelBackgroundColor=none;" parent="1" vertex="1">
          <mxGeometry x="1170" y="651" width="40" height="38" as="geometry" />
        </mxCell>
        <mxCell id="7OVz4w7n9kzEPWy-4BBC-13" value="&lt;p style=&quot;margin: 0cm; font-size: 12pt; font-family: Aptos, sans-serif;&quot; class=&quot;MsoNormal&quot;&gt;&lt;/p&gt;&lt;span style=&quot;font-family: Aptos, sans-serif; background-color: initial;&quot;&gt;&lt;font style=&quot;font-size: 14px;&quot;&gt;API Gateway: Actúa como la puerta de entrada para todas las solicitudes entrantes. Aquí se configuran diferentes endpoints que reciben datos de los usuarios o de otros servicios. API Gateway puede manejar autenticación, limitación de tasa, y otras políticas de acceso antes de reenviar las solicitudes a las funciones Lambda correspondientes.&lt;/font&gt;&lt;/span&gt;&amp;nbsp;" style="text;html=1;align=left;verticalAlign=top;spacingTop=-4;fontSize=14;labelBackgroundColor=none;whiteSpace=wrap;" parent="1" vertex="1">
          <mxGeometry x="1220.5" y="62.5" width="449" height="118" as="geometry" />
        </mxCell>
        <mxCell id="7OVz4w7n9kzEPWy-4BBC-14" value="&lt;p style=&quot;margin: 0cm; font-family: Aptos, sans-serif;&quot; class=&quot;MsoNormal&quot;&gt;&lt;font style=&quot;font-size: 14px;&quot;&gt;AWS Lambda: Cada función Lambda está diseñada para procesar tipos específicos de eventos. Por ejemplo, podrías tener una función Lambda para procesar eventos de login, otra para transacciones, etc. Estas funciones recibirán los datos desde API Gateway, procesarán la información necesaria, y luego realizarán operaciones de escritura en MongoDB.&lt;/font&gt;&lt;span style=&quot;font-size: 12pt;&quot;&gt;&lt;/span&gt;&lt;/p&gt;" style="text;html=1;align=left;verticalAlign=top;spacingTop=-4;fontSize=14;labelBackgroundColor=none;whiteSpace=wrap;" parent="1" vertex="1">
          <mxGeometry x="1219.5" y="183.5" width="450" height="115" as="geometry" />
        </mxCell>
        <mxCell id="7OVz4w7n9kzEPWy-4BBC-15" value="&lt;p style=&quot;margin: 0cm; font-family: Aptos, sans-serif;&quot; class=&quot;MsoNormal&quot;&gt;&lt;font style=&quot;font-size: 14px;&quot;&gt;Autenticación a través de IAM: Las funciones Lambda deben tener permisos IAM adecuados para interactuar con otros servicios de AWS, incluido el acceso a DocumentDB. Esto se configura a través de roles de IAM asociados a cada función Lambda, permitiendo autenticación segura y autorización para operar sobre la base de datos.&lt;/font&gt;&lt;span style=&quot;font-size: 12pt;&quot;&gt;&lt;/span&gt;&lt;/p&gt;" style="text;html=1;align=left;verticalAlign=top;spacingTop=-4;fontSize=14;labelBackgroundColor=none;whiteSpace=wrap;" parent="1" vertex="1">
          <mxGeometry x="1219.5" y="303.5" width="450" height="117" as="geometry" />
        </mxCell>
        <mxCell id="7OVz4w7n9kzEPWy-4BBC-16" value="&lt;p style=&quot;margin: 0cm; font-family: Aptos, sans-serif;&quot; class=&quot;MsoNormal&quot;&gt;&lt;font style=&quot;font-size: 14px;&quot;&gt;MongoDB (DocumentDB): Aquí se almacenan los datos procesados por las funciones Lambda. Cada tipo de evento puede ser almacenado en colecciones separadas dentro de DocumentDB. Por ejemplo, eventos de login en una colección, transacciones en otra, etc.&lt;/font&gt;&lt;span style=&quot;font-size: 12pt;&quot;&gt;&lt;/span&gt;&lt;/p&gt;" style="text;html=1;align=left;verticalAlign=top;spacingTop=-4;fontSize=14;labelBackgroundColor=none;whiteSpace=wrap;" parent="1" vertex="1">
          <mxGeometry x="1219.5" y="419.5" width="450" height="121" as="geometry" />
        </mxCell>
        <mxCell id="7OVz4w7n9kzEPWy-4BBC-17" value="&lt;p style=&quot;margin: 0cm; font-family: Aptos, sans-serif;&quot; class=&quot;MsoNormal&quot;&gt;&lt;font style=&quot;font-size: 14px;&quot;&gt;Conexión a DocumentDB: AWS QuickSight puede conectarse directamente a Amazon DocumentDB para acceder a los datos almacenados. Esta conexión se configura dentro de QuickSight, donde se establece la fuente de datos apuntando a la instancia de DocumentDB.&lt;/font&gt;&lt;span style=&quot;font-size: 12pt;&quot;&gt;&lt;/span&gt;&lt;/p&gt;" style="text;html=1;align=left;verticalAlign=top;spacingTop=-4;fontSize=14;labelBackgroundColor=none;whiteSpace=wrap;" parent="1" vertex="1">
          <mxGeometry x="1220.5" y="536.5" width="449" height="114" as="geometry" />
        </mxCell>
        <mxCell id="7OVz4w7n9kzEPWy-4BBC-18" value="&lt;p style=&quot;margin: 0cm; font-family: Aptos, sans-serif;&quot; class=&quot;MsoNormal&quot;&gt;&lt;font style=&quot;font-size: 14px;&quot;&gt;Creación de Análisis y Dashboards: Una vez establecida la conexión, puede usarce QuickSight para crear visualizaciones, gráficos, y dashboards que ayuden a interpretar los datos. QuickSight ofrece una variedad de herramientas para analizar los datos, incluyendo la capacidad de realizar cálculos ad-hoc, filtrar datos y mucho más.&lt;/font&gt;&lt;span style=&quot;font-size: 12pt;&quot;&gt;&lt;/span&gt;&lt;/p&gt;" style="text;html=1;align=left;verticalAlign=top;spacingTop=-4;fontSize=14;labelBackgroundColor=none;whiteSpace=wrap;" parent="1" vertex="1">
          <mxGeometry x="1220.5" y="652.5" width="450" height="118" as="geometry" />
        </mxCell>
        <mxCell id="zyhvNxNpctVgDXwyQbDc-1" value="" style="sketch=0;points=[[0,0,0],[0.25,0,0],[0.5,0,0],[0.75,0,0],[1,0,0],[0,1,0],[0.25,1,0],[0.5,1,0],[0.75,1,0],[1,1,0],[0,0.25,0],[0,0.5,0],[0,0.75,0],[1,0.25,0],[1,0.5,0],[1,0.75,0]];outlineConnect=0;fontColor=#232F3E;fillColor=#E7157B;strokeColor=#ffffff;dashed=0;verticalLabelPosition=bottom;verticalAlign=top;align=center;html=1;fontSize=12;fontStyle=0;aspect=fixed;shape=mxgraph.aws4.resourceIcon;resIcon=mxgraph.aws4.api_gateway;" vertex="1" parent="1">
          <mxGeometry x="84.5" y="400" width="110" height="110" as="geometry" />
        </mxCell>
        <mxCell id="zyhvNxNpctVgDXwyQbDc-2" value="" style="outlineConnect=0;dashed=0;verticalLabelPosition=bottom;verticalAlign=top;align=center;html=1;shape=mxgraph.aws3.lambda;fillColor=#F58534;gradientColor=none;" vertex="1" parent="1">
          <mxGeometry x="349.75" y="298.5" width="76.5" height="93" as="geometry" />
        </mxCell>
        <mxCell id="zyhvNxNpctVgDXwyQbDc-3" value="" style="outlineConnect=0;dashed=0;verticalLabelPosition=bottom;verticalAlign=top;align=center;html=1;shape=mxgraph.aws3.lambda;fillColor=#F58534;gradientColor=none;" vertex="1" parent="1">
          <mxGeometry x="349.75" y="408.5" width="76.5" height="93" as="geometry" />
        </mxCell>
        <mxCell id="zyhvNxNpctVgDXwyQbDc-4" value="" style="outlineConnect=0;dashed=0;verticalLabelPosition=bottom;verticalAlign=top;align=center;html=1;shape=mxgraph.aws3.lambda;fillColor=#F58534;gradientColor=none;" vertex="1" parent="1">
          <mxGeometry x="349.75" y="528.5" width="76.5" height="93" as="geometry" />
        </mxCell>
        <mxCell id="zyhvNxNpctVgDXwyQbDc-8" value="" style="sketch=0;points=[[0,0,0],[0.25,0,0],[0.5,0,0],[0.75,0,0],[1,0,0],[0,1,0],[0.25,1,0],[0.5,1,0],[0.75,1,0],[1,1,0],[0,0.25,0],[0,0.5,0],[0,0.75,0],[1,0.25,0],[1,0.5,0],[1,0.75,0]];outlineConnect=0;fontColor=#232F3E;fillColor=#C925D1;strokeColor=#ffffff;dashed=0;verticalLabelPosition=bottom;verticalAlign=top;align=center;html=1;fontSize=12;fontStyle=0;aspect=fixed;shape=mxgraph.aws4.resourceIcon;resIcon=mxgraph.aws4.documentdb_with_mongodb_compatibility;" vertex="1" parent="1">
          <mxGeometry x="835" y="372.5" width="78" height="78" as="geometry" />
        </mxCell>
        <mxCell id="zyhvNxNpctVgDXwyQbDc-9" value="IAM&lt;div&gt;Autenticación&amp;nbsp;&lt;/div&gt;" style="outlineConnect=0;dashed=0;verticalLabelPosition=bottom;verticalAlign=top;align=center;html=1;shape=mxgraph.aws3.iam;fillColor=#759C3E;gradientColor=none;" vertex="1" parent="1">
          <mxGeometry x="585" y="447.5" width="42" height="81" as="geometry" />
        </mxCell>
        <mxCell id="zyhvNxNpctVgDXwyQbDc-10" value="API GW" style="text;html=1;align=center;verticalAlign=middle;resizable=0;points=[];autosize=1;strokeColor=none;fillColor=none;" vertex="1" parent="1">
          <mxGeometry x="104.5" y="361.5" width="70" height="30" as="geometry" />
        </mxCell>
        <mxCell id="zyhvNxNpctVgDXwyQbDc-11" value="QuickSight" style="sketch=0;points=[[0,0,0],[0.25,0,0],[0.5,0,0],[0.75,0,0],[1,0,0],[0,1,0],[0.25,1,0],[0.5,1,0],[0.75,1,0],[1,1,0],[0,0.25,0],[0,0.5,0],[0,0.75,0],[1,0.25,0],[1,0.5,0],[1,0.75,0]];outlineConnect=0;fontColor=#232F3E;fillColor=#8C4FFF;strokeColor=#ffffff;dashed=0;verticalLabelPosition=bottom;verticalAlign=top;align=center;html=1;fontSize=12;fontStyle=0;aspect=fixed;shape=mxgraph.aws4.resourceIcon;resIcon=mxgraph.aws4.quicksight;" vertex="1" parent="1">
          <mxGeometry x="835" y="694" width="78" height="78" as="geometry" />
        </mxCell>
        <mxCell id="zyhvNxNpctVgDXwyQbDc-12" value="" style="edgeStyle=orthogonalEdgeStyle;html=1;endArrow=open;elbow=vertical;startArrow=none;endFill=0;strokeColor=#545B64;rounded=0;fontSize=14;strokeWidth=2;entryX=0.5;entryY=0;entryDx=0;entryDy=0;entryPerimeter=0;" edge="1" parent="1" source="-QjtrjUzRDEMRZ5MF8oH-14" target="zyhvNxNpctVgDXwyQbDc-11">
          <mxGeometry x="-0.037" y="20" width="100" relative="1" as="geometry">
            <mxPoint x="627" y="620" as="sourcePoint" />
            <mxPoint x="897" y="620" as="targetPoint" />
            <mxPoint as="offset" />
          </mxGeometry>
        </mxCell>
        <mxCell id="zyhvNxNpctVgDXwyQbDc-13" value="Request data" style="edgeLabel;html=1;align=center;verticalAlign=middle;resizable=0;points=[];" vertex="1" connectable="0" parent="zyhvNxNpctVgDXwyQbDc-12">
          <mxGeometry x="-0.085" y="-1" relative="1" as="geometry">
            <mxPoint as="offset" />
          </mxGeometry>
        </mxCell>
      </root>
    </mxGraphModel>
  </diagram>
</mxfile>
